<?xml version="1.0" encoding="UTF-8"?>
<svg version="1.1" xmlns="http://www.w3.org/2000/svg" width="500" height="500">
<path d="M0 0 C1.17801178 -0.00101212 1.17801178 -0.00101212 2.37982178 -0.00204468 C13.89936764 0.01369924 24.90761885 0.40294895 36.125 3.25 C37.1771167 3.51538574 37.1771167 3.51538574 38.25048828 3.78613281 C67.38749571 11.30577948 91.53298559 25.47093794 113.125 46.25 C113.8159375 46.87777344 114.506875 47.50554687 115.21875 48.15234375 C135.92411086 67.54240504 148.17856339 95.2379088 155.125 122.25 C155.30579102 122.93626465 155.48658203 123.6225293 155.67285156 124.32958984 C160.94190226 145.39007974 160.44923998 172.27249447 155.125 193.25 C154.94807617 193.95141113 154.77115234 194.65282227 154.58886719 195.37548828 C147.37493518 223.32791742 134.06818357 247.38522754 114.125 268.25 C113.15626953 269.31347656 113.15626953 269.31347656 112.16796875 270.3984375 C87.83118509 296.17774562 49.78655081 313.9198521 14.28955078 315.41113281 C9.94283314 315.45711851 5.59696525 315.49665697 1.25 315.5 C0.46465881 315.50067474 -0.32068237 315.50134949 -1.12982178 315.50204468 C-12.64936764 315.48630076 -23.65761885 315.09705105 -34.875 312.25 C-35.57641113 312.07307617 -36.27782227 311.89615234 -37.00048828 311.71386719 C-76.96003372 301.40115187 -112.71449932 276.67271933 -134.3828125 241.234375 C-154.44161948 207.18153654 -164.17617095 163.31378193 -154.42285156 124.32958984 C-154.24206055 123.6433252 -154.06126953 122.95706055 -153.875 122.25 C-153.56900879 121.06011475 -153.56900879 121.06011475 -153.25683594 119.84619141 C-146.97659969 96.01877396 -136.12474905 75.43972832 -121.12890625 55.94921875 C-119.69543537 54.06307717 -119.69543537 54.06307717 -118 51.125 C-115.66409182 47.96465364 -113.2965021 46.17733482 -110.1171875 43.9296875 C-107.69950159 42.11852907 -105.56894079 40.13824869 -103.375 38.0625 C-75.00712987 12.32848083 -37.82403866 0.02908859 0 0 Z " fill="#FCFCFC" transform="translate(249.875,92.75)"/>
<path d="M0 0 C1.17801178 -0.00101212 1.17801178 -0.00101212 2.37982178 -0.00204468 C13.89936764 0.01369924 24.90761885 0.40294895 36.125 3.25 C37.1771167 3.51538574 37.1771167 3.51538574 38.25048828 3.78613281 C67.38749571 11.30577948 91.53298559 25.47093794 113.125 46.25 C113.8159375 46.87777344 114.506875 47.50554687 115.21875 48.15234375 C135.92411086 67.54240504 148.17856339 95.2379088 155.125 122.25 C155.30579102 122.93626465 155.48658203 123.6225293 155.67285156 124.32958984 C160.94190226 145.39007974 160.44923998 172.27249447 155.125 193.25 C154.94807617 193.95141113 154.77115234 194.65282227 154.58886719 195.37548828 C147.37493518 223.32791742 134.06818357 247.38522754 114.125 268.25 C113.15626953 269.31347656 113.15626953 269.31347656 112.16796875 270.3984375 C87.83118509 296.17774562 49.78655081 313.9198521 14.28955078 315.41113281 C9.94283314 315.45711851 5.59696525 315.49665697 1.25 315.5 C0.46465881 315.50067474 -0.32068237 315.50134949 -1.12982178 315.50204468 C-12.64936764 315.48630076 -23.65761885 315.09705105 -34.875 312.25 C-35.57641113 312.07307617 -36.27782227 311.89615234 -37.00048828 311.71386719 C-76.96003372 301.40115187 -112.71449932 276.67271933 -134.3828125 241.234375 C-154.44161948 207.18153654 -164.17617095 163.31378193 -154.42285156 124.32958984 C-154.24206055 123.6433252 -154.06126953 122.95706055 -153.875 122.25 C-153.56900879 121.06011475 -153.56900879 121.06011475 -153.25683594 119.84619141 C-146.97659969 96.01877396 -136.12474905 75.43972832 -121.12890625 55.94921875 C-119.69543537 54.06307717 -119.69543537 54.06307717 -118 51.125 C-115.66409182 47.96465364 -113.2965021 46.17733482 -110.1171875 43.9296875 C-107.69950159 42.11852907 -105.56894079 40.13824869 -103.375 38.0625 C-75.00712987 12.32848083 -37.82403866 0.02908859 0 0 Z M-55.875 45.25 C-56.46635742 45.55131836 -57.05771484 45.85263672 -57.66699219 46.16308594 C-86.30283271 60.89409807 -109.06589879 87.07608363 -119.14453125 117.78515625 C-119.50611328 119.00525391 -119.50611328 119.00525391 -119.875 120.25 C-120.14699219 121.13558594 -120.41898438 122.02117187 -120.69921875 122.93359375 C-123.93165884 134.05003407 -125.24465497 144.93813025 -125.1875 156.5 C-125.18258545 157.68513184 -125.1776709 158.87026367 -125.17260742 160.09130859 C-125.0517958 169.15775591 -124.19316072 177.45407564 -121.875 186.25 C-121.62556641 187.25667725 -121.62556641 187.25667725 -121.37109375 188.28369141 C-113.56007922 219.54944678 -94.15224314 246.91303015 -66.875 264.25 C-52.05920124 273.0239277 -37.5760292 278.42444235 -20.75927734 281.85791016 C-19.31735293 282.15795299 -17.8830401 282.4947901 -16.453125 282.84765625 C4.20775786 286.07200615 27.36844724 283.0372948 46.16943359 274.13769531 C48.74347529 272.96925391 51.37463201 272.00286439 54.02587891 271.02587891 C67.30508955 266.07034206 77.68182935 257.56343452 88.125 248.25 C88.85460937 247.60546875 89.58421875 246.9609375 90.3359375 246.296875 C109.96263333 227.87181361 120.29511253 202.20630172 125.125 176.25 C125.29700928 175.48961426 125.46901855 174.72922852 125.64624023 173.94580078 C128.26758695 159.18552009 127.12507937 141.65332763 123.125 127.25 C122.84293701 126.21286865 122.84293701 126.21286865 122.55517578 125.15478516 C117.74858884 107.9436095 109.62861554 91.95253675 98.125 78.25 C97.40699219 77.39277344 96.68898438 76.53554687 95.94921875 75.65234375 C73.4065464 49.74628866 43.24237872 35.10359854 9.125 32.25 C-13.52877568 30.68077559 -35.67292651 34.72342069 -55.875 45.25 Z " fill="#040404" transform="translate(249.875,92.75)"/>
<path d="M0 0 C0.66 0.99 1.32 1.98 2 3 C1.33170166 3.06993164 0.66340332 3.13986328 -0.02514648 3.21191406 C-24.50172635 5.18733613 -24.50172635 5.18733613 -47 14 C-47.03525132 15.88658874 -47.03525132 15.88658874 -46 18 C-40.01904251 22.48571812 -33.22187242 23.57596882 -26 25 C-25.06671875 25.1959375 -24.1334375 25.391875 -23.171875 25.59375 C-12.00081007 27.81489741 -0.68475538 28.15852559 10.67578125 28.203125 C11.84344528 28.20882507 13.01110931 28.21452515 14.2141571 28.22039795 C16.67214066 28.22977749 19.13013638 28.23635358 21.58813477 28.24023438 C25.26537252 28.24987643 28.9420349 28.28094321 32.61914062 28.3125 C67.85073491 29.07429672 67.85073491 29.07429672 100 17 C99.91275485 15.06274767 99.91275485 15.06274767 99 13 C89.58137886 7.28733116 77.70184931 6.34224425 67 5 C66.17129395 4.89558594 65.34258789 4.79117188 64.48876953 4.68359375 C59.66312034 4.08429914 54.83414722 3.52612358 50 3 C50.33 1.68 50.66 0.36 51 -1 C92.3777031 -0.18547829 92.3777031 -0.18547829 110 9 C111.14275391 9.56847656 111.14275391 9.56847656 112.30859375 10.1484375 C114.97911621 13.07182698 114.46134465 16.32153777 114.3125 20.0625 C114.30283203 20.79533203 114.29316406 21.52816406 114.28320312 22.28320312 C114.16962788 27.66074425 114.16962788 27.66074425 113 30 C114.27875 29.896875 115.5575 29.79375 116.875 29.6875 C122.73002685 29.70597012 127.23632593 31.66625951 132 35 C137.10675009 40.34046863 138.49363302 45.69384382 138.3984375 52.890625 C137.25194807 61.8377386 132.16766635 68.82005852 125.30078125 74.3828125 C122.01431311 76.69282576 118.71848499 78.49185909 115 80 C114.071875 80.391875 113.14375 80.78375 112.1875 81.1875 C107.51299272 82.37904107 102.80325846 82.67522452 98 83 C97.67 84.65 97.34 86.3 97 88 C98.08539063 88.49628906 99.17078125 88.99257813 100.2890625 89.50390625 C115.22737654 96.51580342 115.22737654 96.51580342 119 103 C119.72748115 107.14664257 119.34080504 109.24093423 117.625 113.0625 C106.74174538 125.24138017 88.03488433 128.98556749 72.59619141 131.56201172 C70.91869761 131.8450119 69.24355904 132.14252668 67.57177734 132.45751953 C54.65497998 134.88975011 41.85421651 135.28885252 28.75 135.3125 C27.95515198 135.31608521 27.16030396 135.31967041 26.34136963 135.32336426 C-1.111464 135.38998187 -38.98321825 133.8894448 -60 114 C-62.31939841 110.228268 -62.66340691 107.42271273 -62 103 C-57.52307525 94.60155846 -48.16198797 90.94968787 -40 87 C-40.50789063 85.98164063 -41.01578125 84.96328125 -41.5390625 83.9140625 C-52.19478437 62.19198363 -60.81996742 36.58008139 -58 12 C-49.19853774 1.48117925 -25.9558239 0.99902083 -13.04296875 -0.44140625 C-3.2995177 -1.30530371 -3.2995177 -1.30530371 0 0 Z " fill="#020202" transform="translate(223,204)"/>
<path d="M0 0 C3.0625 2.3125 3.0625 2.3125 5 5 C5 5.99 5 6.98 5 8 C6.051875 7.9175 7.10375 7.835 8.1875 7.75 C12.56887825 8.03730349 13.94845581 8.94845581 17 12 C17.495 12.99 17.495 12.99 18 14 C19.740742 14.77191813 19.740742 14.77191813 21.875 15.375 C26.41042584 16.80000621 30.86437462 18.3899693 35.32421875 20.03515625 C36.20722656 20.35355469 37.09023437 20.67195313 38 21 C38.95777344 21.34675781 39.91554687 21.69351562 40.90234375 22.05078125 C44.22444214 23.06877609 47.43711635 23.63387376 50.875 24.125 C52.02742188 24.29257812 53.17984375 24.46015625 54.3671875 24.6328125 C55.23601562 24.75398438 56.10484375 24.87515625 57 25 C57 25.66 57 26.32 57 27 C61.29 27 65.58 27 70 27 C70 28.65 70 30.3 70 32 C69 33 69 33 67.15234375 33.09765625 C65.1015625 33.06510417 63.05078125 33.03255208 61 33 C61 33.66 61 34.32 61 35 C62.65 35.33 64.3 35.66 66 36 C65.67 37.65 65.34 39.3 65 41 C63.2984375 41.185625 63.2984375 41.185625 61.5625 41.375 C60.386875 41.58125 59.21125 41.7875 58 42 C57.505 42.99 57.505 42.99 57 44 C59.64 44 62.28 44 65 44 C64.67 45.98 64.34 47.96 64 50 C58.72 50 53.44 50 48 50 C48 49.34 48 48.68 48 48 C42.72 47.67 37.44 47.34 32 47 C34.25 40.25 34.25 40.25 36 37 C33.69 36.67 31.38 36.34 29 36 C28.01 37.98 27.02 39.96 26 42 C23.36 42 20.72 42 18 42 C19.22527029 37.94718288 20.69880494 34.55639236 23 31 C20.69 30.67 18.38 30.34 16 30 C14.02 32.97 14.02 32.97 12 36 C9.36 35.67 6.72 35.34 4 35 C5.20381448 32.50638429 6.45428722 30.31856917 8 28 C7.484375 28.33 6.96875 28.66 6.4375 29 C3.0739584 30.3799145 0.60761041 30.37974846 -3 30 C-5.9375 28.5 -5.9375 28.5 -8 26 C-8.68582594 20.59912074 -8.40504755 17.41395053 -5 13 C-3.3125 11.1875 -3.3125 11.1875 -2 10 C-2.33 9.01 -2.66 8.02 -3 7 C-7.20938887 7.45612335 -7.20938887 7.45612335 -10.9375 9.3125 C-12.21864983 10.96980281 -12.21864983 10.96980281 -11.8125 13.125 C-11.1564434 15.18964132 -11.1564434 15.18964132 -9 16 C-9 17.65 -9 19.3 -9 21 C-12.43119989 21.19795384 -15.20408888 21.30611966 -18.4375 20.0625 C-20.63248484 17.16512001 -20.61769701 14.85805731 -20.44921875 11.28515625 C-19.48219124 6.36592933 -16.21308645 3.8271044 -12.25 1.125 C-8.05362955 -0.32758977 -4.38716291 -0.87904551 0 0 Z " fill="#F3F3F3" transform="translate(171,351)"/>
<path d="M0 0 C-0.66 3.63 -1.32 7.26 -2 11 C-0.35 11.66 1.3 12.32 3 13 C5.38088669 14.26182389 7.67617651 15.63304501 10 17 C9.37240135 19.92879371 8.41377341 22.36095629 7 25 C3.88801935 23.50163895 0.9465385 21.80066242 -2 20 C-1.484375 20.7425 -0.96875 21.485 -0.4375 22.25 C1 25 1 25 0.8125 27.125 C0 29 0 29 -2 32 C-2.99 32 -3.98 32 -5 32 C-5.7425 32.845625 -6.485 33.69125 -7.25 34.5625 C-10 37 -10 37 -13.75 36.8125 C-14.8225 36.544375 -15.895 36.27625 -17 36 C-17.33 36 -17.66 36 -18 36 C-17.773125 36.598125 -17.54625 37.19625 -17.3125 37.8125 C-17 40 -17 40 -17.9375 41.8125 C-21.31470407 43.75695083 -24.24004341 42.67802496 -28 42 C-28 43.98 -28 45.96 -28 48 C-28.58007812 48.06058594 -29.16015625 48.12117188 -29.7578125 48.18359375 C-30.53898437 48.26738281 -31.32015625 48.35117187 -32.125 48.4375 C-32.94355469 48.52515625 -33.76210938 48.6128125 -34.60546875 48.703125 C-36.56199673 48.94569617 -38.50427767 49.30085553 -40.4375 49.6875 C-41.7059375 49.8421875 -41.7059375 49.8421875 -43 50 C-43.66 49.34 -44.32 48.68 -45 48 C-45.226875 48.94875 -45.45375 49.8975 -45.6875 50.875 C-47 54 -47 54 -49.625 55.375 C-50.40875 55.58125 -51.1925 55.7875 -52 56 C-52 54.35 -52 52.7 -52 51 C-52.56847656 51.49371094 -53.13695312 51.98742187 -53.72265625 52.49609375 C-58.5164786 56.47360578 -61.70084036 58.86597533 -68 59 C-67.67 56.69 -67.34 54.38 -67 52 C-65.865625 51.71125 -64.73125 51.4225 -63.5625 51.125 C-62.386875 50.75375 -61.21125 50.3825 -60 50 C-59.67 49.34 -59.34 48.68 -59 48 C-59.68707031 48.23976563 -60.37414062 48.47953125 -61.08203125 48.7265625 C-62.43361328 49.17128906 -62.43361328 49.17128906 -63.8125 49.625 C-64.70582031 49.92664063 -65.59914063 50.22828125 -66.51953125 50.5390625 C-69 51 -69 51 -72 49 C-71.83400064 41.1980301 -67.35156368 36.35156368 -62 31 C-61.071875 31.04125 -60.14375 31.0825 -59.1875 31.125 C-55.18900673 30.96819634 -53.95912026 29.55923915 -51 27 C-50.01 27 -49.02 27 -48 27 C-46.68 30.63 -45.36 34.26 -44 38 C-44.33 34.04 -44.66 30.08 -45 26 C-40 23 -40 23 -38 23 C-37.34 27.29 -36.68 31.58 -36 36 C-36.144375 33.958125 -36.28875 31.91625 -36.4375 29.8125 C-36.48475947 23.61475763 -36.48475947 23.61475763 -34.44140625 21.0234375 C-32.5 19.6875 -32.5 19.6875 -29 18 C-27.25728062 20.297221 -25.60088848 22.59866729 -24 25 C-24.061875 23.96875 -24.12375 22.9375 -24.1875 21.875 C-23.97856114 17.55693027 -23.50063819 15.51652245 -21 12 C-19.03418603 10.75088904 -17.07469758 9.78225577 -14.9375 8.859375 C-12.7446118 7.9523034 -12.7446118 7.9523034 -10 6 C-9.34 6.33 -8.68 6.66 -8 7 C-7.62875 5.5459375 -7.62875 5.5459375 -7.25 4.0625 C-6 1 -6 1 -4 0.125 C-2.66861361 0.04178835 -1.33398422 0 0 0 Z " fill="#EFEFEF" transform="translate(344,343)"/>
<path d="M0 0 C8.3204053 2.24237873 15.99552411 5.6099557 21.0625 12.875 C23.25289392 16.93412159 24.05526957 20.47179103 23 25 C20.15849478 33.58628752 15.18754061 39.20107161 8.76782227 45.25976562 C4.1522561 49.66125915 0.83970236 54.26240465 -2 60 C-2.33 60.66 -2.66 61.32 -3 62 C-3.49353045 67.404563 -3.70833946 72.33694213 -1.5625 77.375 C1.89526145 80.9170971 5.77393436 83.45352455 10 86 C9.01 86.495 9.01 86.495 8 87 C-2.83992069 82.82805684 -15.70014846 77.50450326 -21.625 66.9375 C-23.17217646 63.1216273 -23.73622476 60.12285866 -23 56 C-19.47809459 49.42134651 -13.62090288 44.7333919 -8 40 C3.7377977 30.27515941 3.7377977 30.27515941 9.5625 16.625 C8.88426097 12.25412626 7.29466217 10.22034599 4.53515625 6.8671875 C2.76344442 4.71228101 1.36609011 2.42860464 0 0 Z " fill="#050505" transform="translate(245,134)"/>
<path d="M0 0 C1.32 0.66 2.64 1.32 4 2 C2.40771497 6.59211484 -0.05260947 10.33705847 -2.6875 14.375 C-23.15589915 46.53540401 -28.61330914 83.51780267 -20.6875 120.625 C-17.33827966 133.97214045 -12.52587995 145.94651423 -6 158 C-5.50628906 158.91523438 -5.01257813 159.83046875 -4.50390625 160.7734375 C0.0453065 168.73778163 5.74118084 176.82780089 12.3046875 183.2578125 C14 185 14 185 14 187 C12.02 187.99 12.02 187.99 10 189 C-13.78059629 167.33323449 -28.02455738 132.81285719 -30 101 C-31.45652137 64.59997047 -23.41464723 28.81802736 0 0 Z " fill="#F1F1F1" transform="translate(135,161)"/>
<path d="M0 0 C20.23518826 34.38108376 30.51491179 72.18438198 21 112 C20.56494141 113.90072266 20.56494141 113.90072266 20.12109375 115.83984375 C15.13707016 136.04703565 6.12012502 154.84443497 -7 171 C-8.11955078 172.39992188 -8.11955078 172.39992188 -9.26171875 173.828125 C-9.83535156 174.54484375 -10.40898437 175.2615625 -11 176 C-12.32 175.34 -13.64 174.68 -15 174 C-13.69112457 170.25007191 -12.12807253 167.7690816 -9.5 164.8125 C2.87192251 149.65633359 11.14223505 130.0973045 15 111 C15.19207031 110.07960938 15.38414062 109.15921875 15.58203125 108.2109375 C22.14400146 74.69296017 17.17683966 39.30018964 -0.84765625 9.99609375 C-1.86228749 8.50173143 -2.89824642 7.02126617 -3.96875 5.56640625 C-5 4 -5 4 -5 2 C-2 0 -2 0 0 0 Z " fill="#F0F0F0" transform="translate(371,169)"/>
<path d="M0 0 C5.99762371 1.87498528 10.5318182 3.63742949 14.2578125 8.828125 C15.9567821 13.79984658 15.55053492 18.30427126 13.42578125 23 C12.73855713 24.34228101 12.03356272 25.67558925 11.3125 27 C10.94817871 27.69988037 10.58385742 28.39976074 10.20849609 29.12084961 C8.32301645 32.70025618 6.33488516 36.1713549 4.125 39.5625 C0.55990607 45.03617957 -0.49033423 50.50307145 0 57 C0.96840053 60.16931083 1.82140534 60.8809369 4.625 62.75 C5.800625 63.36875 5.800625 63.36875 7 64 C6.01 64.495 6.01 64.495 5 65 C2.65839535 64.0873746 0.48815839 63.12411426 -1.75 62 C-2.38381592 61.68329346 -3.01763184 61.36658691 -3.6706543 61.0402832 C-9.26433148 58.10853956 -13.10778995 54.78442009 -16 49 C-16.63412861 44.4705099 -16.20135763 41.76983098 -13.5625 38.125 C-11.06506325 35.0607691 -8.33151415 32.31735725 -5.5 29.5625 C-0.52655717 24.72347455 5.51564203 18.35922171 6.3125 11.1875 C5.92835642 7.2692355 4.70743683 5.78706733 2 3 C1.34 2.67 0.68 2.34 0 2 C0 1.34 0 0.68 0 0 Z " fill="#070707" transform="translate(269,162)"/>
<path d="M0 0 C0.66 0 1.32 0 2 0 C2.515625 0.5775 3.03125 1.155 3.5625 1.75 C16.82761301 13.9947197 40.74038998 13.18220003 57.5 13.125 C58.63308594 13.12886719 59.76617187 13.13273437 60.93359375 13.13671875 C78.02029303 13.11714636 98.05129351 12.15896519 112 1 C112.66 1 113.32 1 114 1 C113.74761841 4.70159666 113.56986189 6.47249952 110.79296875 9.04296875 C102.57497552 14.80131086 92.72410432 17.13095138 83 19 C82.12061768 19.17345947 81.24123535 19.34691895 80.33520508 19.52563477 C76.42142783 20.08229015 72.57285822 20.16214156 68.62890625 20.16796875 C67.82952133 20.17129715 67.03013641 20.17462555 66.20652771 20.17805481 C64.51635306 20.18310127 62.82616851 20.18546384 61.13598633 20.18530273 C58.60154849 20.18746666 56.06756281 20.20558376 53.53320312 20.22460938 C36.55260719 20.2851255 16.06173706 20.04644379 2.3203125 8.625 C0.06294974 5.84670737 0 3.52097921 0 0 Z " fill="#E9E9E9" transform="translate(193,307)"/>
<path d="M0 0 C-0.66 3.63 -1.32 7.26 -2 11 C-0.35 11.66 1.3 12.32 3 13 C5.38088669 14.26182389 7.67617651 15.63304501 10 17 C9.37240135 19.92879371 8.41377341 22.36095629 7 25 C3.88801935 23.50163895 0.9465385 21.80066242 -2 20 C-1.484375 20.7425 -0.96875 21.485 -0.4375 22.25 C1 25 1 25 0.8125 27.125 C0 29 0 29 -2 32 C-2.99 32 -3.98 32 -5 32 C-6.11375 33.2684375 -6.11375 33.2684375 -7.25 34.5625 C-10 37 -10 37 -13.5 37.125 C-18.15916575 35.62741101 -20.63983065 33.30658088 -23.1171875 29.10546875 C-25.0882578 24.40455329 -24.44008064 19.45776711 -23 14.6875 C-20.63826063 11.51391271 -18.51193853 10.40288255 -14.9375 8.859375 C-12.7446118 7.9523034 -12.7446118 7.9523034 -10 6 C-9.34 6.33 -8.68 6.66 -8 7 C-7.7525 6.030625 -7.505 5.06125 -7.25 4.0625 C-6 1 -6 1 -4 0.125 C-2.66861361 0.04178835 -1.33398422 0 0 0 Z " fill="#EEEEEE" transform="translate(344,343)"/>
<path d="M0 0 C2.64676089 0.47444755 5.29233364 0.95431328 7.9375 1.4375 C8.69224609 1.57220703 9.44699219 1.70691406 10.22460938 1.84570312 C15.88671875 2.88671875 15.88671875 2.88671875 17 4 C17.33430747 6.30672153 17.6153542 8.62118617 17.875 10.9375 C19.84414961 30.00768291 19.84414961 30.00768291 26 48 C21.58698724 48.55162659 18.78823059 48.30183522 15 45.875 C5.93602932 38.3743886 1.93932416 24.16580574 0 13 C-0.27093418 8.63840378 -0.26472896 4.36067424 0 0 Z " fill="#F8F8F8" transform="translate(179,237)"/>
<path d="M0 0 C5.30643041 -0.50537432 7.86680312 0.69344249 12 4 C14.77018053 6.58550183 14.98875382 7.91565365 15.5 11.75 C15.27719401 16.73528392 13.28400229 20.31339166 10 24 C4.55370448 28.33727163 -0.99162038 31.12784772 -8 31 C-7.82984375 30.49855469 -7.6596875 29.99710937 -7.484375 29.48046875 C-5.26818052 22.56075514 -3.7866642 15.5415181 -2.35839844 8.42651367 C-2.19629883 7.62576416 -2.03419922 6.82501465 -1.8671875 6 C-1.72394043 5.278125 -1.58069336 4.55625 -1.43310547 3.8125 C-1 2 -1 2 0 0 Z " fill="#F7F7F7" transform="translate(334,245)"/>
<path d="M0 0 C4.1117782 0.73424611 5.67548972 1.56511386 8.5 4.625 C11.42572414 9.87112604 12.06665861 13.76952769 11.5 19.625 C10.1875 22.4375 10.1875 22.4375 8.5 24.625 C8.0875 25.24375 7.675 25.8625 7.25 26.5 C5.5 27.625 5.5 27.625 2.125 27.625 C-2.88969135 26.24163687 -5.17126101 23.83956498 -7.8125 19.4375 C-9.0081018 14.54640175 -9.71319522 9.37093741 -7.625 4.64453125 C-5.39504133 1.5563319 -3.71971918 0.66423557 0 0 Z " fill="#F2F2F2" transform="translate(166.5,123.375)"/>
<path d="M0 0 C3.77014207 3.03250557 5.66844308 5.33333509 6.2734375 10.19921875 C6.53969254 16.72246711 5.30397646 21.00477884 1 26 C-1.88861709 27.44430855 -3.79647701 27.37688506 -7 27 C-9.57285724 24.827365 -11.48996919 23.02006162 -13 20 C-13.14851844 18.06640414 -13.22130833 16.12657903 -13.25 14.1875 C-13.27578125 13.14980469 -13.3015625 12.11210938 -13.328125 11.04296875 C-12.95776226 7.60829521 -11.96655918 5.80234683 -10 3 C-9.5875 2.401875 -9.175 1.80375 -8.75 1.1875 C-5.77759896 -0.82948642 -3.47356049 -0.47911179 0 0 Z " fill="#F3F3F3" transform="translate(206,105)"/>
<path d="M0 0 C3.465 1.98 3.465 1.98 7 4 C6.3503125 4.72316406 6.3503125 4.72316406 5.6875 5.4609375 C5.130625 6.09257812 4.57375 6.72421875 4 7.375 C3.443125 8.00148437 2.88625 8.62796875 2.3125 9.2734375 C0.79827513 10.90389833 0.79827513 10.90389833 1 13 C3.31 11.35 5.62 9.7 8 8 C11.465 9.98 11.465 9.98 15 12 C11.11792715 15.23136349 7.06812022 17.98827171 2.8125 20.6875 C2.18408203 21.09033203 1.55566406 21.49316406 0.90820312 21.90820312 C-3.69600627 24.84800314 -3.69600627 24.84800314 -6 26 C-8.625 24.875 -8.625 24.875 -11 23 C-11.65325876 19.26709281 -11.14201526 18.21302289 -9 15 C-9.556875 15.515625 -10.11375 16.03125 -10.6875 16.5625 C-13 18 -13 18 -15.625 17.75 C-18 17 -18 17 -20 16 C-18.80393738 12.41181214 -17.82614803 11.92345001 -14.74609375 9.86328125 C-13.89208984 9.28642578 -13.03808594 8.70957031 -12.15820312 8.11523438 C-11.26037109 7.52033203 -10.36253906 6.92542969 -9.4375 6.3125 C-8.53580078 5.70599609 -7.63410156 5.09949219 -6.70507812 4.47460938 C-4.47471626 2.97590061 -2.23965413 1.48477141 0 0 Z " fill="#F3F3F3" transform="translate(355,140)"/>
<path d="M0 0 C3 2 3 2 5 4 C4.25 8.75 4.25 8.75 2 11 C2.495 11.37125 2.99 11.7425 3.5 12.125 C5 14 5 14 5.5625 16.875 C5 20 5 20 2.1875 22.8125 C-1.86166671 25.5913399 -4.39757598 26.12470681 -9.1875 26.0625 C-10.53908203 26.04896484 -10.53908203 26.04896484 -11.91796875 26.03515625 C-12.60503906 26.02355469 -13.29210937 26.01195313 -14 26 C-13.4237919 17.58432901 -12.38227951 9.32051741 -11 1 C-7.29455389 -0.2351487 -3.85094809 -0.576893 0 0 Z " fill="#E7E7E7" transform="translate(258,97)"/>
<path d="M0 0 C11.00361343 -0.58714933 11.00361343 -0.58714933 16 3 C17.1875 4.8125 17.1875 4.8125 17 7 C14.16859961 11.12575485 12.93253156 12.76686711 8 14 C8.66 16.97 9.32 19.94 10 23 C5.56923077 25.09230769 5.56923077 25.09230769 2.6875 24.625 C1.8521875 24.315625 1.8521875 24.315625 1 24 C1 21.36 1 18.72 1 16 C0.34 16 -0.32 16 -1 16 C-1.144375 16.78375 -1.28875 17.5675 -1.4375 18.375 C-2 21 -2 21 -3 23 C-5.31 23 -7.62 23 -10 23 C-8.41980408 17.7936703 -6.22115005 13.01626689 -3.875 8.125 C-3.50246094 7.34125 -3.12992187 6.5575 -2.74609375 5.75 C-1.83381003 3.83186501 -0.91733016 1.91572671 0 0 Z " fill="#EAEAEA" transform="translate(289,104)"/>
<path d="M0 0 C0.9075 0.2475 1.815 0.495 2.75 0.75 C1.45700306 3.63437779 0.09058637 5.62219421 -2.25 7.75 C-0.48570801 12.72209562 2.1439166 17.18438061 4.75 21.75 C0.125 25.75 0.125 25.75 -3.25 25.75 C-4.57 23.11 -5.89 20.47 -7.25 17.75 C-7.4046875 19.668125 -7.4046875 19.668125 -7.5625 21.625 C-7.73828125 23.8046875 -7.73828125 23.8046875 -8.25 25.75 C-11.25 27.75 -11.25 27.75 -14.25 27.75 C-15.15934553 22.29392684 -15.41619248 16.89643679 -15.5 11.375 C-15.52126953 10.66085938 -15.54253906 9.94671875 -15.56445312 9.2109375 C-15.578125 7.1640625 -15.578125 7.1640625 -15.25 3.75 C-12.25 1.75 -12.25 1.75 -8.25 1.75 C-7.92 2.41 -7.59 3.07 -7.25 3.75 C-6.71375 3.069375 -6.1775 2.38875 -5.625 1.6875 C-3.25 -0.25 -3.25 -0.25 0 0 Z " fill="#EFEFEF" transform="translate(229.25,99.25)"/>
<path d="M0 0 C2.69481248 1.03646634 4.98118733 2.42938124 7.4375 3.9375 C6.76654297 4.97197266 6.76654297 4.97197266 6.08203125 6.02734375 C2.31113784 11.88871112 -1.27071602 17.79384788 -4.5625 23.9375 C-10.3125 23.0625 -10.3125 23.0625 -12.5625 21.9375 C-12.2325 20.6175 -11.9025 19.2975 -11.5625 17.9375 C-14.45484315 17.11111624 -16.44992431 16.9375 -19.5625 16.9375 C-21.3125 15.5625 -21.3125 15.5625 -22.5625 13.9375 C-22.5625 13.2775 -22.5625 12.6175 -22.5625 11.9375 C-21.62148438 11.40640625 -20.68046875 10.8753125 -19.7109375 10.328125 C-18.45305828 9.61470096 -17.19524953 8.90115265 -15.9375 8.1875 C-15.32003906 7.83945313 -14.70257813 7.49140625 -14.06640625 7.1328125 C-11.04388784 5.4147494 -8.11472977 3.65680243 -5.26171875 1.66796875 C-2.5625 -0.0625 -2.5625 -0.0625 0 0 Z " fill="#ECECEC" transform="translate(341.5625,128.0625)"/>
<path d="M0 0 C2.74551924 3.45348332 4.9421726 7.17805313 7.125 11 C7.48464844 11.61617188 7.84429687 12.23234375 8.21484375 12.8671875 C11.621011 18.81203371 11.621011 18.81203371 12 22 C11.0625 23.8125 11.0625 23.8125 9 25 C6.23541287 24.94557899 3.73894628 24.49390834 1 24 C1 25.98 1 27.96 1 30 C-0.98 30 -2.96 30 -5 30 C-6.84804914 26.30390172 -6.70834277 22.07259557 -7 18 C-7.10183594 16.88625 -7.20367187 15.7725 -7.30859375 14.625 C-7.78998629 5.979583 -7.78998629 5.979583 -5.4375 3.0625 C-3.5 1.6875 -3.5 1.6875 0 0 Z " fill="#EDEDED" transform="translate(315,361)"/>
<path d="M0 0 C2.66888625 2.84107246 3.18562124 5.28433234 3.3125 9.0625 C3.03101265 12.60924058 2.59779639 14.01744673 1 17 C1.37183507 19.97468053 2.5929527 22.3735117 4 25 C3.01 26.32 2.02 27.64 1 29 C-4.03586744 26.86441666 -6.28911113 23.03315763 -9.375 18.6875 C-9.94605469 17.92759766 -10.51710937 17.16769531 -11.10546875 16.38476562 C-12.59769487 14.29528598 -13.92667797 12.33287993 -15 10 C-14.24293578 5.84744624 -11.78274223 3.130585 -9 0 C-5.78176644 -1.60911678 -3.4113678 -0.83787981 0 0 Z " fill="#F1F1F1" transform="translate(154,138)"/>
<path d="M0 0 C1.875 1.125 1.875 1.125 3 3 C2.6875 6.1875 2.6875 6.1875 2 9 C1.01 9.33 0.02 9.66 -1 10 C-0.67 10.66 -0.34 11.32 0 12 C0.66 12 1.32 12 2 12 C2.33 11.34 2.66 10.68 3 10 C4.32 10.33 5.64 10.66 7 11 C6.814375 11.7425 6.62875 12.485 6.4375 13.25 C5.82527572 15.92229373 5.82527572 15.92229373 6.5625 18.1875 C6.706875 18.785625 6.85125 19.38375 7 20 C6.34 20.66 5.68 21.32 5 22 C4.21625 21.835 3.4325 21.67 2.625 21.5 C0.05513231 20.73545208 0.05513231 20.73545208 -1.875 21.9375 C-5.01099661 23.5054983 -7.5521693 23.31343915 -11 23 C-13 21.875 -13 21.875 -14 20 C-13.78056533 14.73356794 -13.78056533 14.73356794 -11.5078125 12.59765625 C-9.16016138 10.11011918 -9.14326328 7.34632643 -8.625 4.05859375 C-7.31963657 -0.24094703 -3.91214431 -0.48901804 0 0 Z " fill="#E2E2E2" transform="translate(258,381)"/>
<path d="M0 0 C4.95 0 9.9 0 15 0 C15 1.98 15 3.96 15 6 C12.03 6 9.06 6 6 6 C6 6.66 6 7.32 6 8 C7.65 8.33 9.3 8.66 11 9 C10.67 10.65 10.34 12.3 10 14 C7.69 14 5.38 14 3 14 C3 14.99 3 15.98 3 17 C5.31 17 7.62 17 10 17 C10 18.98 10 20.96 10 23 C4.39 23 -1.22 23 -7 23 C-4.69 15.41 -2.38 7.82 0 0 Z " fill="#F4F4F4" transform="translate(269,100)"/>
<path d="M0 0 C0.66 0.33 1.32 0.66 2 1 C1.57847656 1.47050781 1.15695312 1.94101562 0.72265625 2.42578125 C0.17480469 3.04839844 -0.37304688 3.67101562 -0.9375 4.3125 C-1.48277344 4.92738281 -2.02804687 5.54226563 -2.58984375 6.17578125 C-4.97255132 9.2581204 -5.11691777 11.93267412 -5.0625 15.6875 C-5.05347656 16.49574219 -5.04445313 17.30398438 -5.03515625 18.13671875 C-5.02355469 18.75160156 -5.01195312 19.36648438 -5 20 C-7.55489105 17.55961387 -9.25254702 15.07884573 -11 12 C-13.66673341 13.18988105 -15.12412965 13.8457747 -17 16 C-17.77489234 19.59782361 -17.56503811 23.09054823 -17.375 26.75 C-17.34792969 27.73355469 -17.32085937 28.71710938 -17.29296875 29.73046875 C-17.22232587 32.15587423 -17.12376119 34.57681945 -17 37 C-17.33 37 -17.66 37 -18 37 C-18.33965474 34.81347261 -18.67142477 32.62571975 -19 30.4375 C-19.185625 29.21933594 -19.37125 28.00117188 -19.5625 26.74609375 C-19.98555077 23.12372152 -20.07501425 19.64287954 -20 16 C-20.78375 16.495 -21.5675 16.99 -22.375 17.5 C-25 19 -25 19 -27 19 C-26.84402344 19.60328125 -26.68804687 20.2065625 -26.52734375 20.828125 C-26.33269531 21.62734375 -26.13804687 22.4265625 -25.9375 23.25 C-25.64166016 24.43335938 -25.64166016 24.43335938 -25.33984375 25.640625 C-24.98502733 28.10394822 -25.23122456 29.65604132 -26 32 C-26.67354499 30.56570999 -27.33859701 29.12742943 -28 27.6875 C-28.37125 26.88699219 -28.7425 26.08648437 -29.125 25.26171875 C-30 23 -30 23 -30 20 C-34.32371893 22.02633069 -34.32371893 22.02633069 -38 25 C-41.125 24.625 -41.125 24.625 -44 24 C-43.505 22.515 -43.505 22.515 -43 21 C-40.48046875 19.7890625 -40.48046875 19.7890625 -37.1875 18.625 C-36.00929688 18.19445312 -34.83109375 17.76390625 -33.6171875 17.3203125 C-32.42351562 16.88460938 -31.22984375 16.44890625 -30 16 C-19.20640594 11.73029817 -9.05884234 7.3634724 0 0 Z " fill="#101010" transform="translate(326,350)"/>
<path d="M0 0 C3 1 3 1 3.90722656 2.68652344 C4.14924805 3.40356445 4.39126953 4.12060547 4.640625 4.859375 C4.90617188 5.64570312 5.17171875 6.43203125 5.4453125 7.2421875 C5.71085938 8.06976563 5.97640625 8.89734375 6.25 9.75 C6.53101563 10.56210938 6.81203125 11.37421875 7.1015625 12.2109375 C9.62172985 19.87124816 9.62172985 19.87124816 8 24 C4.68386534 27.31613466 1.48421069 28.74859237 -3 30 C-3 27.36 -3 24.72 -3 22 C-1.68 21.67 -0.36 21.34 1 21 C0.72285156 20.03578125 0.44570312 19.0715625 0.16015625 18.078125 C-0.20207031 16.81484375 -0.56429687 15.5515625 -0.9375 14.25 C-1.29714844 12.99703125 -1.65679687 11.7440625 -2.02734375 10.453125 C-2.72554149 7.97438281 -3.39943726 5.50339838 -4 3 C-2.1875 1.4375 -2.1875 1.4375 0 0 Z " fill="#EEEEEE" transform="translate(184,112)"/>
<path d="M0 0 C2.64 0.33 5.28 0.66 8 1 C6.10899495 5.18313239 3.34187164 8.43712913 0.4609375 11.9765625 C-1.19512542 13.85429994 -1.19512542 13.85429994 -1 16 C1.475 16.99 1.475 16.99 4 18 C3.34 19.98 2.68 21.96 2 24 C-2.62 23.01 -7.24 22.02 -12 21 C-12 17.50663182 -11.30454854 16.60355566 -9.375 13.76953125 C-8.83359375 12.96708984 -8.2921875 12.16464844 -7.734375 11.33789062 C-6.87585938 10.08782227 -6.87585938 10.08782227 -6 8.8125 C-5.42765625 7.96751953 -4.8553125 7.12253906 -4.265625 6.25195312 C-2.84986029 4.16370018 -1.42781918 2.08002117 0 0 Z " fill="#F0F0F0" transform="translate(310,111)"/>
<path d="M0 0 C1.98 0.66 3.96 1.32 6 2 C6 6.05234227 4.50679785 6.91786226 1.75 9.8125 C-1.57793665 13.39199722 -4.47299898 16.82495483 -7 21 C-9.64 20.67 -12.28 20.34 -15 20 C-13.69677204 17.17781613 -12.26466391 14.94944847 -10.21484375 12.6171875 C-9.68439453 12.00746094 -9.15394531 11.39773437 -8.60742188 10.76953125 C-8.05634766 10.14433594 -7.50527344 9.51914063 -6.9375 8.875 C-5.8406326 7.62398515 -4.74549606 6.37144995 -3.65234375 5.1171875 C-3.16757568 4.56659668 -2.68280762 4.01600586 -2.18334961 3.44873047 C-0.90366815 1.99022263 -0.90366815 1.99022263 0 0 Z " fill="#EDEDED" transform="translate(326,118)"/>
<path d="M0 0 C-0.24378969 3.57558214 -0.5062732 5.47541527 -3 8.125 C-12.96427612 14.35267258 -12.96427612 14.35267258 -17.27734375 13.60546875 C-18.13005859 13.30576172 -18.13005859 13.30576172 -19 13 C-19 12.34 -19 11.68 -19 11 C-19.66 10.34 -20.32 9.68 -21 9 C-19.57107422 8.52820313 -19.57107422 8.52820313 -18.11328125 8.046875 C-16.84617149 7.61511908 -15.57925447 7.18279723 -14.3125 6.75 C-13.07113281 6.33234375 -11.82976562 5.9146875 -10.55078125 5.484375 C-7.02696088 4.01127078 -3.66262396 0 0 0 Z " fill="#F3F3F3" transform="translate(307,308)"/>
<path d="M0 0 C0.33 1.32 0.66 2.64 1 4 C0.071875 4.3403125 0.071875 4.3403125 -0.875 4.6875 C-3.70348348 6.4345045 -4.06701694 7.84221117 -5 11 C-5.37593066 12.9924325 -5.71979545 14.9918674 -6 17 C-6.33 17 -6.66 17 -7 17 C-7 14.36 -7 11.72 -7 9 C-8.32 8.34 -9.64 7.68 -11 7 C-10.4376049 3.73810844 -9.5859495 2.08865152 -7 0 C-3.86650268 -1.04449911 -3.01031744 -0.93423645 0 0 Z " fill="#181818" transform="translate(169,358)"/>
<path d="M0 0 C1.875 0 1.875 0 4 1 C8 6.22222222 8 6.22222222 8 9 C6.25 10.6875 6.25 10.6875 4 12 C1.875 11.875 1.875 11.875 0 11 C-2.30163882 7.54754176 -2.34490322 6.05261287 -2 2 C-1.34 1.34 -0.68 0.68 0 0 Z " fill="#080808" transform="translate(329,360)"/>
<path d="M0 0 C-0.99 0.33 -1.98 0.66 -3 1 C-3 1.99 -3 2.98 -3 4 C-2.34 4.33 -1.68 4.66 -1 5 C-2.62490954 5.02698189 -4.24994633 5.04638757 -5.875 5.0625 C-7.23238281 5.07990234 -7.23238281 5.07990234 -8.6171875 5.09765625 C-11 5 -11 5 -13 4 C-13 3.34 -13 2.68 -13 2 C-14.32 2 -15.64 2 -17 2 C-17 2.66 -17 3.32 -17 4 C-17.99 4 -18.98 4 -20 4 C-20 3.34 -20 2.68 -20 2 C-21.32 2 -22.64 2 -24 2 C-24 2.66 -24 3.32 -24 4 C-24.99 4 -25.98 4 -27 4 C-27.33 3.01 -27.66 2.02 -28 1 C-9.17995444 -0.14806378 -9.17995444 -0.14806378 0 0 Z " fill="#FBFBFB" transform="translate(272,321)"/>
<path d="M0 0 C3.65316671 1.24976756 4.78065836 1.67098753 7 5 C7.125 8.1875 7.125 8.1875 7 11 C5.35 11.33 3.7 11.66 2 12 C-0.69319525 8.18464006 -1.42407099 5.66478085 -1 1 C-0.67 0.67 -0.34 0.34 0 0 Z " fill="#0F0F0F" transform="translate(165,131)"/>
<path d="M0 0 C-0.48377581 6.4100295 -0.48377581 6.4100295 -2.75 9 C-5.5806311 10.25805827 -7.08518324 9.89063845 -10 9 C-9.70820766 5.49849196 -9.21713533 4.21713533 -6.6875 1.6875 C-4 0 -4 0 0 0 Z " fill="#0E0E0E" transform="translate(180,365)"/>
<path d="M0 0 C0.66 0.33 1.32 0.66 2 1 C1.57847656 1.47050781 1.15695312 1.94101562 0.72265625 2.42578125 C0.17480469 3.04839844 -0.37304688 3.67101562 -0.9375 4.3125 C-1.75541016 5.23482422 -1.75541016 5.23482422 -2.58984375 6.17578125 C-4.97255132 9.2581204 -5.11691777 11.93267412 -5.0625 15.6875 C-5.05347656 16.49574219 -5.04445313 17.30398438 -5.03515625 18.13671875 C-5.02355469 18.75160156 -5.01195312 19.36648438 -5 20 C-7.55293014 17.54003371 -9.34243046 15.15727531 -11 12 C-11 9 -11 9 -9.4375 7.125 C-6.43161848 4.5044879 -3.2789228 2.27002348 0 0 Z " fill="#0D0D0D" transform="translate(326,350)"/>
<path d="M0 0 C1.9375 0.5 1.9375 0.5 4 2 C4.81891972 4.65146735 5.16456946 7.22974747 5 10 C4.01 11.485 4.01 11.485 3 13 C1.0625 12.625 1.0625 12.625 -1 12 C-2.24834144 9.50331711 -1.95155125 8.18670849 -1.625 5.4375 C-1.53476563 4.63183594 -1.44453125 3.82617188 -1.3515625 2.99609375 C-1 1 -1 1 0 0 Z " fill="#090909" transform="translate(201,112)"/>
<path d="M0 0 C0.86625 0.3403125 0.86625 0.3403125 1.75 0.6875 C1.75 3.6875 1.75 3.6875 0.75 5.6875 C5.205 6.6775 5.205 6.6775 9.75 7.6875 C8.76 9.0075 7.77 10.3275 6.75 11.6875 C7.41 12.0175 8.07 12.3475 8.75 12.6875 C4.64943257 12.16508914 2.5747439 11.05249384 -0.4375 8.25 C-1.11167969 7.63253906 -1.78585937 7.01507813 -2.48046875 6.37890625 C-3.75177392 5.16372934 -5.00644225 3.93105775 -6.25 2.6875 C-2.80384615 -0.38942308 -2.80384615 -0.38942308 0 0 Z " fill="#131313" transform="translate(328.25,144.3125)"/>
<path d="M0 0 C2.55162546 3.21574716 3.83269511 6.04912191 5 10 C6.65 10.33 8.3 10.66 10 11 C10 11.33 10 11.66 10 12 C2.575 13.485 2.575 13.485 -5 15 C-3 11 -3 11 -1 10 C-0.53248212 7.64400765 -0.53248212 7.64400765 -0.375 4.9375 C-0.26285156 3.55884766 -0.26285156 3.55884766 -0.1484375 2.15234375 C-0.09945312 1.44207031 -0.05046875 0.73179688 0 0 Z " fill="#161616" transform="translate(221,115)"/>
<path d="M0 0 C1.32 0 2.64 0 4 0 C4 0.66 4 1.32 4 2 C4.99 2 5.98 2 7 2 C7 1.34 7 0.68 7 0 C8.32 0 9.64 0 11 0 C11 0.66 11 1.32 11 2 C16.445 2.495 16.445 2.495 22 3 C22 3.33 22 3.66 22 4 C12.43 4 2.86 4 -7 4 C-6.67 3.34 -6.34 2.68 -6 2 C-4.02 2 -2.04 2 0 2 C0 1.34 0 0.68 0 0 Z " fill="#E8E8E8" transform="translate(248,323)"/>
<path d="M0 0 C7.625 0.875 7.625 0.875 11 2 C11 2.99 11 3.98 11 5 C8.20046988 6.90368048 6.84226401 6.99184124 3.375 6.8125 C0 6 0 6 -2 3 C-1.34 2.01 -0.68 1.02 0 0 Z " fill="#E8E8E8" transform="translate(210,317)"/>
<path d="M0 0 C2.31 0 4.62 0 7 0 C6.32829194 3.8063457 5.27253436 7.35206816 4 11 C1.03 10.67 -1.94 10.34 -5 10 C-4.67 9.01 -4.34 8.02 -4 7 C-0.535 6.505 -0.535 6.505 3 6 C3.33 5.01 3.66 4.02 4 3 C2.35 3 0.7 3 -1 3 C-0.67 2.01 -0.34 1.02 0 0 Z " fill="#3D3D3D" transform="translate(218,382)"/>
<path d="M0 0 C0.66 0 1.32 0 2 0 C2.1953125 2.01822917 2.390625 4.03645833 2.5859375 6.0546875 C2.86374749 8.22668245 2.86374749 8.22668245 5 10 C4.67 10.66 4.34 11.32 4 12 C-0.29 11.01 -4.58 10.02 -9 9 C-6 7 -6 7 -2 7 C-1.34 4.69 -0.68 2.38 0 0 Z " fill="#1D1D1D" transform="translate(288,120)"/>
<path d="M0 0 C6.27 0.66 12.54 1.32 19 2 C19 2.33 19 2.66 19 3 C13.06 3.495 13.06 3.495 7 4 C7.33 5.32 7.66 6.64 8 8 C5.03 7.67 2.06 7.34 -1 7 C-0.67 6.01 -0.34 5.02 0 4 C0.99 4 1.98 4 3 4 C3 3.01 3 2.02 3 1 C2.01 0.67 1.02 0.34 0 0 Z " fill="#D3D3D3" transform="translate(218,318)"/>
<path d="M0 0 C0.90105469 0.00902344 1.80210937 0.01804687 2.73046875 0.02734375 C3.41753906 0.03894531 4.10460937 0.05054688 4.8125 0.0625 C3.8225 0.3925 2.8325 0.7225 1.8125 1.0625 C1.8125 2.0525 1.8125 3.0425 1.8125 4.0625 C2.4725 4.3925 3.1325 4.7225 3.8125 5.0625 C2.04200311 5.11660687 0.27103151 5.15534119 -1.5 5.1875 C-2.97919922 5.22230469 -2.97919922 5.22230469 -4.48828125 5.2578125 C-7.1875 5.0625 -7.1875 5.0625 -10.1875 3.0625 C-9.5275 3.0625 -8.8675 3.0625 -8.1875 3.0625 C-8.1875 2.4025 -8.1875 1.7425 -8.1875 1.0625 C-5.17259443 0.05753148 -3.14568308 -0.04085303 0 0 Z " fill="#FEFEFE" transform="translate(233.1875,320.9375)"/>
<path d="M0 0 C-0.27489191 4.03174806 -0.53491576 5.56894631 -3.5625 8.375 C-4.366875 8.91125 -5.17125 9.4475 -6 10 C-6.93423645 6.98968256 -7.04449911 6.13349732 -6 3 C-2.55555556 0 -2.55555556 0 0 0 Z " fill="#DCDCDC" transform="translate(307,308)"/>
<path d="M0 0 C-1.98 2.97 -1.98 2.97 -4 6 C-6.31 5.67 -8.62 5.34 -11 5 C-10 2 -10 2 -8.22265625 1.015625 C-7.15337891 0.63664062 -7.15337891 0.63664062 -6.0625 0.25 C-5.35222656 -0.01296875 -4.64195312 -0.2759375 -3.91015625 -0.546875 C-2 -1 -2 -1 0 0 Z " fill="#222222" transform="translate(293,369)"/>
<path d="M0 0 C1.32 0 2.64 0 4 0 C4 0.66 4 1.32 4 2 C4.598125 1.649375 5.19625 1.29875 5.8125 0.9375 C8 0 8 0 11 1 C10.505 1.45375 10.01 1.9075 9.5 2.375 C7.77390663 3.87635519 7.77390663 3.87635519 8 6 C5.69 5.34 3.38 4.68 1 4 C0.67 2.68 0.34 1.36 0 0 Z " fill="#DDDDDD" transform="translate(201,316)"/>
<path d="M0 0 C0 1.32 0 2.64 0 4 C-3.3 4.33 -6.6 4.66 -10 5 C-9.67 4.01 -9.34 3.02 -9 2 C-3.21052632 0 -3.21052632 0 0 0 Z " fill="#0C0C0C" transform="translate(290,381)"/>
<path d="M0 0 C1.4370809 -0.05422947 2.87475462 -0.09289723 4.3125 -0.125 C5.11300781 -0.14820313 5.91351563 -0.17140625 6.73828125 -0.1953125 C9 0 9 0 12 2 C11.01 2.33 10.02 2.66 9 3 C8.67 3.66 8.34 4.32 8 5 C9.32 5.33 10.64 5.66 12 6 C9.69 5.67 7.38 5.34 5 5 C5 4.01 5 3.02 5 2 C3.35 1.67 1.7 1.34 0 1 C0 0.67 0 0.34 0 0 Z " fill="#CFCFCF" transform="translate(264,320)"/>
<path d="M0 0 C2.31 0 4.62 0 7 0 C7 0.99 7 1.98 7 3 C4.1875 3.625 4.1875 3.625 1 4 C0.01 3.34 -0.98 2.68 -2 2 C-1.34 2 -0.68 2 0 2 C0 1.34 0 0.68 0 0 Z " fill="#F0F0F0" transform="translate(225,322)"/>
<path d="M0 0 C-0.33 0.99 -0.66 1.98 -1 3 C-7.625 3.25 -7.625 3.25 -11 1 C-3.57142857 -1.42857143 -3.57142857 -1.42857143 0 0 Z " fill="#DCDCDC" transform="translate(299,315)"/>
<path d="M0 0 C0.66 0 1.32 0 2 0 C3.6875 1.6875 3.6875 1.6875 5 4 C4.6875 6.75 4.6875 6.75 4 9 C0.06153846 5.67692308 0.06153846 5.67692308 -0.25 2.25 C-0.1675 1.5075 -0.085 0.765 0 0 Z " fill="#DBDBDB" transform="translate(193,307)"/>
<path d="M0 0 C0 1.98 0 3.96 0 6 C-0.99 6 -1.98 6 -3 6 C-3.66 4.35 -4.32 2.7 -5 1 C-3 0 -3 0 0 0 Z " fill="#121212" transform="translate(151,144)"/>
<path d="M0 0 C2.64 0 5.28 0 8 0 C8 0.99 8 1.98 8 3 C5.03 2.67 2.06 2.34 -1 2 C-0.67 1.34 -0.34 0.68 0 0 Z " fill="#1E1E1E" transform="translate(214,390)"/>
<path d="M0 0 C1.98 0.66 3.96 1.32 6 2 C5.67 2.66 5.34 3.32 5 4 C2.69 4 0.38 4 -2 4 C-1.34 2.68 -0.68 1.36 0 0 Z " fill="#2D2D2D" transform="translate(205,378)"/>
<path d="M0 0 C-0.33 0.99 -0.66 1.98 -1 3 C-3.31 3.33 -5.62 3.66 -8 4 C-8 3.34 -8 2.68 -8 2 C-2.25 0 -2.25 0 0 0 Z " fill="#181818" transform="translate(285,391)"/>
<path d="M0 0 C1.98 0.66 3.96 1.32 6 2 C6 2.66 6 3.32 6 4 C3.69 3.67 1.38 3.34 -1 3 C-0.67 2.01 -0.34 1.02 0 0 Z " fill="#181818" transform="translate(192,373)"/>
<path d="M0 0 C3.35595828 0.59927826 5.37801226 1.84622436 8 4 C5.03 3.67 2.06 3.34 -1 3 C-0.67 2.01 -0.34 1.02 0 0 Z " fill="#C9C9C9" transform="translate(218,322)"/>
<path d="M0 0 C1.32 0.33 2.64 0.66 4 1 C3.34 2.32 2.68 3.64 2 5 C0.68 4.67 -0.64 4.34 -2 4 C-1.34 2.68 -0.68 1.36 0 0 Z " fill="#F8F8F8" transform="translate(210,317)"/>
<path d="M0 0 C1.65 0 3.3 0 5 0 C4.34 1.32 3.68 2.64 3 4 C2.01 4 1.02 4 0 4 C0 2.68 0 1.36 0 0 Z " fill="#040404" transform="translate(251,113)"/>
</svg>
