<svg xmlns="http://www.w3.org/2000/svg" viewBox="0 0 64 64" width="64" height="64">
    <!-- Background circle -->
    <circle cx="32" cy="32" r="30" fill="#2c3e50" stroke="#34495e" stroke-width="2"/>
    
    <!-- Cash register icon -->
    <g fill="white">
        <!-- Screen -->
        <rect x="20" y="18" width="24" height="8" rx="2" fill="#6c757d"/>
        <rect x="22" y="20" width="20" height="4" rx="1" fill="#f8f9fa"/>
        
        <!-- Main body -->
        <rect x="16" y="26" width="32" height="18" rx="2" fill="white"/>
        <rect x="18" y="28" width="28" height="14" rx="1" fill="#f8f9fa"/>
        
        <!-- Keys -->
        <circle cx="22" cy="32" r="1.5" fill="#495057"/>
        <circle cx="26" cy="32" r="1.5" fill="#495057"/>
        <circle cx="30" cy="32" r="1.5" fill="#495057"/>
        <circle cx="34" cy="32" r="1.5" fill="#495057"/>
        <circle cx="38" cy="32" r="1.5" fill="#495057"/>
        <circle cx="42" cy="32" r="1.5" fill="#495057"/>
        
        <circle cx="22" cy="36" r="1.5" fill="#495057"/>
        <circle cx="26" cy="36" r="1.5" fill="#495057"/>
        <circle cx="30" cy="36" r="1.5" fill="#495057"/>
        <circle cx="34" cy="36" r="1.5" fill="#495057"/>
        <circle cx="38" cy="36" r="1.5" fill="#495057"/>
        <circle cx="42" cy="36" r="1.5" fill="#495057"/>
        
        <!-- Cash drawer -->
        <rect x="18" y="44" width="28" height="4" rx="1" fill="#6c757d"/>
        <circle cx="22" cy="46" r="0.5" fill="#495057"/>
    </g>
</svg>
